<svg width="25" height="25" viewBox="0 0 25 25" fill="none" xmlns="http://www.w3.org/2000/svg">
<path d="M7.5 11.75C7.08579 11.75 6.75 12.0858 6.75 12.5C6.75 12.9142 7.08579 13.25 7.5 13.25V11.75ZM12.5 13.25C12.9142 13.25 13.25 12.9142 13.25 12.5C13.25 12.0858 12.9142 11.75 12.5 11.75V13.25ZM12.5 11.75C12.0858 11.75 11.75 12.0858 11.75 12.5C11.75 12.9142 12.0858 13.25 12.5 13.25V11.75ZM17.5 13.25C17.9142 13.25 18.25 12.9142 18.25 12.5C18.25 12.0858 17.9142 11.75 17.5 11.75V13.25ZM13.25 12.5C13.25 12.0858 12.9142 11.75 12.5 11.75C12.0858 11.75 11.75 12.0858 11.75 12.5H13.25ZM11.75 17.5C11.75 17.9142 12.0858 18.25 12.5 18.25C12.9142 18.25 13.25 17.9142 13.25 17.5H11.75ZM11.75 12.5C11.75 12.9142 12.0858 13.25 12.5 13.25C12.9142 13.25 13.25 12.9142 13.25 12.5H11.75ZM13.25 7.5C13.25 7.08579 12.9142 6.75 12.5 6.75C12.0858 6.75 11.75 7.08579 11.75 7.5H13.25ZM7.5 13.25H12.5V11.75H7.5V13.25ZM12.5 13.25H17.5V11.75H12.5V13.25ZM12.5 12.5H11.75V12.501C11.75 12.5011 11.75 12.5022 11.75 12.5022C11.75 12.5021 11.75 12.5023 11.75 12.5022C11.75 12.5022 11.75 12.5033 11.75 12.5034C11.75 12.5033 11.75 12.5035 11.75 12.5034C11.75 12.5035 11.75 12.5043 11.75 12.5044C11.75 12.5045 11.75 12.5054 11.75 12.5055C11.75 12.5056 11.75 12.5064 11.75 12.5065C11.75 12.5066 11.75 12.5075 11.75 12.5077C11.75 12.5078 11.75 12.5087 11.75 12.5089C11.75 12.509 11.75 12.5101 11.75 12.5102C11.75 12.51 11.75 12.5104 11.75 12.5102C11.75 12.5104 11.75 12.511 11.75 12.5112C11.75 12.511 11.75 12.5114 11.75 12.5112C11.75 12.5114 11.75 12.5121 11.75 12.5122C11.75 12.512 11.75 12.5124 11.75 12.5122C11.75 12.5124 11.75 12.5131 11.75 12.5133C11.75 12.5131 11.75 12.5135 11.75 12.5133C11.75 12.5135 11.75 12.5143 11.75 12.5145C11.75 12.5143 11.75 12.5147 11.75 12.5145C11.75 12.5147 11.75 12.5155 11.75 12.5157C11.75 12.5154 11.75 12.5159 11.75 12.5157C11.75 12.5159 11.75 12.5168 11.75 12.517C11.75 12.5168 11.75 12.5172 11.75 12.517C11.75 12.5172 11.75 12.5181 11.75 12.5184C11.75 12.5181 11.75 12.5186 11.75 12.5184C11.75 12.5186 11.75 12.5196 11.75 12.5198C11.75 12.5196 11.75 12.52 11.75 12.5198C11.75 12.5201 11.75 12.521 11.75 12.5213C11.75 12.521 11.75 12.5216 11.75 12.5213C11.75 12.5215 11.75 12.5226 11.75 12.5229C11.75 12.5226 11.75 12.5231 11.75 12.5229C11.75 12.5232 11.75 12.5242 11.75 12.5245C11.75 12.5242 11.75 12.5248 11.75 12.5245C11.75 12.5248 11.75 12.526 11.75 12.5263C11.75 12.526 11.75 12.5266 11.75 12.5263C11.75 12.5266 11.75 12.5278 11.75 12.5281C11.75 12.5278 11.75 12.5284 11.75 12.5281C11.75 12.5284 11.75 12.5296 11.75 12.53C11.75 12.5297 11.75 12.5303 11.75 12.53C11.75 12.5304 11.75 12.5316 11.75 12.5319C11.75 12.5323 11.75 12.5326 11.75 12.533C11.75 12.5333 11.75 12.5336 11.75 12.534C11.75 12.5344 11.75 12.5347 11.75 12.5351C11.75 12.5354 11.75 12.5358 11.75 12.5361C11.75 12.5365 11.75 12.5369 11.75 12.5373C11.75 12.5376 11.75 12.538 11.75 12.5384C11.75 12.5388 11.75 12.5391 11.75 12.5395C11.75 12.5399 11.75 12.5403 11.75 12.5407C11.75 12.5411 11.75 12.5415 11.75 12.5419C11.75 12.5423 11.75 12.5427 11.75 12.5431C11.75 12.5435 11.75 12.544 11.75 12.5444C11.75 12.5448 11.75 12.5452 11.75 12.5456C11.75 12.5461 11.75 12.5465 11.75 12.5469C11.75 12.5474 11.75 12.5478 11.75 12.5482C11.75 12.5487 11.75 12.5491 11.75 12.5496C11.75 12.55 11.75 12.5505 11.75 12.5509C11.75 12.5514 11.75 12.5519 11.75 12.5523C11.75 12.5528 11.75 12.5533 11.75 12.5538C11.75 12.5542 11.75 12.5547 11.75 12.5552C11.75 12.5557 11.75 12.5562 11.75 12.5567C11.75 12.5571 11.75 12.5576 11.75 12.5581C11.75 12.5586 11.75 12.5592 11.75 12.5597C11.75 12.5602 11.75 12.5607 11.75 12.5612C11.75 12.5617 11.75 12.5622 11.75 12.5628C11.75 12.5633 11.75 12.5638 11.75 12.5644C11.75 12.5649 11.75 12.5655 11.75 12.566C11.75 12.5665 11.75 12.5671 11.75 12.5676C11.75 12.5682 11.75 12.5688 11.75 12.5693C11.75 12.5699 11.75 12.5705 11.75 12.571C11.75 12.5716 11.75 12.5722 11.75 12.5728C11.75 12.5733 11.75 12.5739 11.75 12.5745C11.75 12.5751 11.75 12.5757 11.75 12.5763C11.75 12.5769 11.75 12.5775 11.75 12.5781C11.75 12.5787 11.75 12.5794 11.75 12.58C11.75 12.5806 11.75 12.5812 11.75 12.5818C11.75 12.5825 11.75 12.5831 11.75 12.5837C11.75 12.5844 11.75 12.585 11.75 12.5857C11.75 12.5863 11.75 12.587 11.75 12.5876C11.75 12.5883 11.75 12.589 11.75 12.5896C11.75 12.5903 11.75 12.591 11.75 12.5917C11.75 12.5923 11.75 12.593 11.75 12.5937C11.75 12.5944 11.75 12.5951 11.75 12.5958C11.75 12.5965 11.75 12.5972 11.75 12.5979C11.75 12.5986 11.75 12.5993 11.75 12.6C11.75 12.6008 11.75 12.6015 11.75 12.6022C11.75 12.603 11.75 12.6037 11.75 12.6044C11.75 12.6052 11.75 12.6059 11.75 12.6067C11.75 12.6074 11.75 12.6082 11.75 12.6089C11.75 12.6097 11.75 12.6105 11.75 12.6112C11.75 12.612 11.75 12.6128 11.75 12.6136C11.75 12.6144 11.75 12.6151 11.75 12.6159C11.75 12.6167 11.75 12.6175 11.75 12.6183C11.75 12.6191 11.75 12.62 11.75 12.6208C11.75 12.6216 11.75 12.6224 11.75 12.6232C11.75 12.6241 11.75 12.6249 11.75 12.6257C11.75 12.6266 11.75 12.6274 11.75 12.6283C11.75 12.6291 11.75 12.63 11.75 12.6308C11.75 12.6317 11.75 12.6326 11.75 12.6334C11.75 12.6343 11.75 12.6352 11.75 12.6361C11.75 12.6369 11.75 12.6378 11.75 12.6387C11.75 12.6396 11.75 12.6405 11.75 12.6414C11.75 12.6423 11.75 12.6432 11.75 12.6442C11.75 12.6451 11.75 12.646 11.75 12.6469C11.75 12.6479 11.75 12.6488 11.75 12.6497C11.75 12.6507 11.75 12.6516 11.75 12.6526C11.75 12.6535 11.75 12.6545 11.75 12.6555C11.75 12.6564 11.75 12.6574 11.75 12.6584C11.75 12.6594 11.75 12.6603 11.75 12.6613C11.75 12.6623 11.75 12.6633 11.75 12.6643C11.75 12.6653 11.75 12.6663 11.75 12.6673C11.75 12.6684 11.75 12.6694 11.75 12.6704C11.75 12.6714 11.75 12.6725 11.75 12.6735C11.75 12.6745 11.75 12.6756 11.75 12.6766C11.75 12.6777 11.75 12.6787 11.75 12.6798C11.75 12.6809 11.75 12.6819 11.75 12.683C11.75 12.6841 11.75 12.6852 11.75 12.6863C11.75 12.6874 11.75 12.6885 11.75 12.6896C11.75 12.6907 11.75 12.6918 11.75 12.6929C11.75 12.694 11.75 12.6951 11.75 12.6962C11.75 12.6974 11.75 12.6985 11.75 12.6997C11.75 12.7008 11.75 12.7019 11.75 12.7031C11.75 12.7042 11.75 12.7054 11.75 12.7066C11.75 12.7077 11.75 12.7089 11.75 12.7101C11.75 12.7113 11.75 12.7125 11.75 12.7137C11.75 12.7149 11.75 12.7161 11.75 12.7173C11.75 12.7185 11.75 12.7197 11.75 12.7209C11.75 12.7221 11.75 12.7233 11.75 12.7246C11.75 12.7258 11.75 12.7271 11.75 12.7283C11.75 12.7296 11.75 12.7308 11.75 12.7321C11.75 12.7333 11.75 12.7346 11.75 12.7359C11.75 12.7371 11.75 12.7384 11.75 12.7397C11.75 12.741 11.75 12.7423 11.75 12.7436C11.75 12.7449 11.75 12.7462 11.75 12.7475C11.75 12.7488 11.75 12.7502 11.75 12.7515C11.75 12.7528 11.75 12.7542 11.75 12.7555C11.75 12.7569 11.75 12.7582 11.75 12.7596C11.75 12.7609 11.75 12.7623 11.75 12.7637C11.75 12.765 11.75 12.7664 11.75 12.7678C11.75 12.7692 11.75 12.7706 11.75 12.772C11.75 12.7734 11.75 12.7748 11.75 12.7762C11.75 12.7776 11.75 12.7791 11.75 12.7805C11.75 12.7819 11.75 12.7834 11.75 12.7848C11.75 12.7863 11.75 12.7877 11.75 12.7892C11.75 12.7906 11.75 12.7921 11.75 12.7936C11.75 12.7951 11.75 12.7965 11.75 12.798C11.75 12.7995 11.75 12.801 11.75 12.8025C11.75 12.804 11.75 12.8055 11.75 12.8071C11.75 12.8086 11.75 12.8101 11.75 12.8116C11.75 12.8132 11.75 12.8147 11.75 12.8163C11.75 12.8178 11.75 12.8194 11.75 12.8209C11.75 12.8225 11.75 12.8241 11.75 12.8257C11.75 12.8272 11.75 12.8288 11.75 12.8304C11.75 12.832 11.75 12.8336 11.75 12.8352C11.75 12.8368 11.75 12.8385 11.75 12.8401C11.75 12.8417 11.75 12.8434 11.75 12.845C11.75 12.8466 11.75 12.8483 11.75 12.85C11.75 12.8516 11.75 12.8533 11.75 12.855C11.75 12.8566 11.75 12.8583 11.75 12.86C11.75 12.8617 11.75 12.8634 11.75 12.8651C11.75 12.8668 11.75 12.8685 11.75 12.8702C11.75 12.872 11.75 12.8737 11.75 12.8754C11.75 12.8772 11.75 12.8789 11.75 12.8807C11.75 12.8824 11.75 12.8842 11.75 12.8859C11.75 12.8877 11.75 12.8895 11.75 12.8913C11.75 12.8931 11.75 12.8949 11.75 12.8967C11.75 12.8985 11.75 12.9003 11.75 12.9021C11.75 12.9039 11.75 12.9057 11.75 12.9076C11.75 12.9094 11.75 12.9113 11.75 12.9131C11.75 12.915 11.75 12.9168 11.75 12.9187C11.75 12.9206 11.75 12.9224 11.75 12.9243C11.75 12.9262 11.75 12.9281 11.75 12.93C11.75 12.9319 11.75 12.9338 11.75 12.9358C11.75 12.9377 11.75 12.9396 11.75 12.9415C11.75 12.9435 11.75 12.9454 11.75 12.9474C11.75 12.9493 11.75 12.9513 11.75 12.9533C11.75 12.9552 11.75 12.9572 11.75 12.9592C11.75 12.9612 11.75 12.9632 11.75 12.9652C11.75 12.9672 11.75 12.9692 11.75 12.9712C11.75 12.9732 11.75 12.9753 11.75 12.9773C11.75 12.9794 11.75 12.9814 11.75 12.9835C11.75 12.9855 11.75 12.9876 11.75 12.9897C11.75 12.9917 11.75 12.9938 11.75 12.9959C11.75 12.998 11.75 13.0001 11.75 13.0022C11.75 13.0043 11.75 13.0064 11.75 13.0086C11.75 13.0107 11.75 13.0128 11.75 13.015C11.75 13.0171 11.75 13.0193 11.75 13.0214C11.75 13.0236 11.75 13.0258 11.75 13.028C11.75 13.0301 11.75 13.0323 11.75 13.0345C11.75 13.0367 11.75 13.0389 11.75 13.0412C11.75 13.0434 11.75 13.0456 11.75 13.0478C11.75 13.0501 11.75 13.0523 11.75 13.0546C11.75 13.0568 11.75 13.0591 11.75 13.0614C11.75 13.0636 11.75 13.0659 11.75 13.0682C11.75 13.0705 11.75 13.0728 11.75 13.0751C11.75 13.0774 11.75 13.0797 11.75 13.0821C11.75 13.0844 11.75 13.0867 11.75 13.0891C11.75 13.0914 11.75 13.0938 11.75 13.0962C11.75 13.0985 11.75 13.1009 11.75 13.1033C11.75 13.1057 11.75 13.1081 11.75 13.1105C11.75 13.1129 11.75 13.1153 11.75 13.1177C11.75 13.1201 11.75 13.1226 11.75 13.125C11.75 13.1274 11.75 13.1299 11.75 13.1324C11.75 13.1348 11.75 13.1373 11.75 13.1398C11.75 13.1422 11.75 13.1447 11.75 13.1472C11.75 13.1497 11.75 13.1522 11.75 13.1548C11.75 13.1573 11.75 13.1598 11.75 13.1623C11.75 13.1649 11.75 13.1674 11.75 13.17C11.75 13.1725 11.75 13.1751 11.75 13.1777C11.75 13.1803 11.75 13.1828 11.75 13.1854C11.75 13.188 11.75 13.1906 11.75 13.1933C11.75 13.1959 11.75 13.1985 11.75 13.2011C11.75 13.2038 11.75 13.2064 11.75 13.2091C11.75 13.2117 11.75 13.2144 11.75 13.2171C11.75 13.2198 11.75 13.2224 11.75 13.2251C11.75 13.2278 11.75 13.2305 11.75 13.2332C11.75 13.236 11.75 13.2387 11.75 13.2414C11.75 13.2442 11.75 13.2469 11.75 13.2497C11.75 13.2524 11.75 13.2552 11.75 13.258C11.75 13.2607 11.75 13.2635 11.75 13.2663C11.75 13.2691 11.75 13.2719 11.75 13.2747C11.75 13.2776 11.75 13.2804 11.75 13.2832C11.75 13.2861 11.75 13.2889 11.75 13.2918C11.75 13.2946 11.75 13.2975 11.75 13.3004C11.75 13.3033 11.75 13.3061 11.75 13.309C11.75 13.3119 11.75 13.3149 11.75 13.3178C11.75 13.3207 11.75 13.3236 11.75 13.3266C11.75 13.3295 11.75 13.3325 11.75 13.3354C11.75 13.3384 11.75 13.3414 11.75 13.3443C11.75 13.3473 11.75 13.3503 11.75 13.3533C11.75 13.3563 11.75 13.3593 11.75 13.3624C11.75 13.3654 11.75 13.3684 11.75 13.3715C11.75 13.3745 11.75 13.3776 11.75 13.3807C11.75 13.3837 11.75 13.3868 11.75 13.3899C11.75 13.393 11.75 13.3961 11.75 13.3992C11.75 13.4023 11.75 13.4054 11.75 13.4086C11.75 13.4117 11.75 13.4148 11.75 13.418C11.75 13.4211 11.75 13.4243 11.75 13.4275C11.75 13.4307 11.75 13.4339 11.75 13.4371C11.75 13.4402 11.75 13.4435 11.75 13.4467C11.75 13.4499 11.75 13.4531 11.75 13.4564C11.75 13.4596 11.75 13.4629 11.75 13.4661C11.75 13.4694 11.75 13.4727 11.75 13.476C11.75 13.4792 11.75 13.4825 11.75 13.4858C11.75 13.4892 11.75 13.4925 11.75 13.4958C11.75 13.4991 11.75 13.5025 11.75 13.5058C11.75 13.5092 11.75 13.5125 11.75 13.5159C11.75 13.5193 11.75 13.5227 11.75 13.5261C11.75 13.5295 11.75 13.5329 11.75 13.5363C11.75 13.5397 11.75 13.5432 11.75 13.5466C11.75 13.55 11.75 13.5535 11.75 13.557C11.75 13.5604 11.75 13.5639 11.75 13.5674C11.75 13.5709 11.75 13.5744 11.75 13.5779C11.75 13.5814 11.75 13.5849 11.75 13.5885C11.75 13.592 11.75 13.5955 11.75 13.5991C11.75 13.6027 11.75 13.6062 11.75 13.6098C11.75 13.6134 11.75 13.617 11.75 13.6206C11.75 13.6242 11.75 13.6278 11.75 13.6314C11.75 13.635 11.75 13.6387 11.75 13.6423C11.75 13.646 11.75 13.6496 11.75 13.6533C11.75 13.657 11.75 13.6607 11.75 13.6644C11.75 13.6681 11.75 13.6718 11.75 13.6755C11.75 13.6792 11.75 13.6829 11.75 13.6867C11.75 13.6904 11.75 13.6942 11.75 13.698C11.75 13.7017 11.75 13.7055 11.75 13.7093C11.75 13.7131 11.75 13.7169 11.75 13.7207C11.75 13.7245 11.75 13.7283 11.75 13.7322C11.75 13.736 11.75 13.7399 11.75 13.7437C11.75 13.7476 11.75 13.7515 11.75 13.7554C11.75 13.7592 11.75 13.7631 11.75 13.7671C11.75 13.771 11.75 13.7749 11.75 13.7788C11.75 13.7828 11.75 13.7867 11.75 13.7907C11.75 13.7946 11.75 13.7986 11.75 13.8026C11.75 13.8066 11.75 13.8106 11.75 13.8146C11.75 13.8186 11.75 13.8226 11.75 13.8266C11.75 13.8307 11.75 13.8347 11.75 13.8388C11.75 13.8428 11.75 13.8469 11.75 13.851C11.75 13.855 11.75 13.8591 11.75 13.8632C11.75 13.8674 11.75 13.8715 11.75 13.8756C11.75 13.8797 11.75 13.8839 11.75 13.888C11.75 13.8922 11.75 13.8964 11.75 13.9005C11.75 13.9047 11.75 13.9089 11.75 13.9131C11.75 13.9173 11.75 13.9215 11.75 13.9258C11.75 13.93 11.75 13.9342 11.75 13.9385C11.75 13.9428 11.75 13.947 11.75 13.9513C11.75 13.9556 11.75 13.9599 11.75 13.9642C11.75 13.9685 11.75 13.9728 11.75 13.9771C11.75 13.9815 11.75 13.9858 11.75 13.9902C11.75 13.9945 11.75 13.9989 11.75 14.0033C11.75 14.0077 11.75 14.0121 11.75 14.0165C11.75 14.0209 11.75 14.0253 11.75 14.0297C11.75 14.0342 11.75 14.0386 11.75 14.0431C11.75 14.0475 11.75 14.052 11.75 14.0565C11.75 14.061 11.75 14.0655 11.75 14.07C11.75 14.0745 11.75 14.079 11.75 14.0836C11.75 14.0881 11.75 14.0927 11.75 14.0972C11.75 14.1018 11.75 14.1064 11.75 14.1109C11.75 14.1155 11.75 14.1201 11.75 14.1248C11.75 14.1294 11.75 14.134 11.75 14.1386C11.75 14.1433 11.75 14.1479 11.75 14.1526C11.75 14.1573 11.75 14.162 11.75 14.1667C11.75 14.1713 11.75 14.1761 11.75 14.1808C11.75 14.1855 11.75 14.1902 11.75 14.195C11.75 14.1997 11.75 14.2045 11.75 14.2093C11.75 14.214 11.75 14.2188 11.75 14.2236C11.75 14.2284 11.75 14.2332 11.75 14.2381C11.75 14.2429 11.75 14.2477 11.75 14.2526C11.75 14.2575 11.75 14.2623 11.75 14.2672C11.75 14.2721 11.75 14.277 11.75 14.2819C11.75 14.2868 11.75 14.2917 11.75 14.2967C11.75 14.3016 11.75 14.3065 11.75 14.3115C11.75 14.3165 11.75 14.3214 11.75 14.3264C11.75 14.3314 11.75 14.3364 11.75 14.3414C11.75 14.3465 11.75 14.3515 11.75 14.3565C11.75 14.3616 11.75 14.3666 11.75 14.3717C11.75 14.3768 11.75 14.3819 11.75 14.387C11.75 14.3921 11.75 14.3972 11.75 14.4023C11.75 14.4074 11.75 14.4126 11.75 14.4177C11.75 14.4229 11.75 14.4281 11.75 14.4332C11.75 14.4384 11.75 14.4436 11.75 14.4488C11.75 14.454 11.75 14.4593 11.75 14.4645C11.75 14.4697 11.75 14.475 11.75 14.4803C11.75 14.4855 11.75 14.4908 11.75 14.4961C11.75 14.5014 11.75 14.5067 11.75 14.512C11.75 14.5174 11.75 14.5227 11.75 14.528C11.75 14.5334 11.75 14.5388 11.75 14.5441C11.75 14.5495 11.75 14.5549 11.75 14.5603C11.75 14.5657 11.75 14.5712 11.75 14.5766C11.75 14.582 11.75 14.5875 11.75 14.5929C11.75 14.5984 11.75 14.6039 11.75 14.6094C11.75 14.6149 11.75 14.6204 11.75 14.6259C11.75 14.6314 11.75 14.637 11.75 14.6425C11.75 14.6481 11.75 14.6536 11.75 14.6592C11.75 14.6648 11.75 14.6704 11.75 14.676C11.75 14.6816 11.75 14.6872 11.75 14.6929C11.75 14.6985 11.75 14.7041 11.75 14.7098C11.75 14.7155 11.75 14.7212 11.75 14.7268C11.75 14.7325 11.75 14.7383 11.75 14.744C11.75 14.7497 11.75 14.7554 11.75 14.7612C11.75 14.7669 11.75 14.7727 11.75 14.7785C11.75 14.7843 11.75 14.7901 11.75 14.7959C11.75 14.8017 11.75 14.8075 11.75 14.8134C11.75 14.8192 11.75 14.8251 11.75 14.8309C11.75 14.8368 11.75 14.8427 11.75 14.8486C11.75 14.8545 11.75 14.8604 11.75 14.8663C11.75 14.8723 11.75 14.8782 11.75 14.8842C11.75 14.8901 11.75 14.8961 11.75 14.9021C11.75 14.9081 11.75 14.9141 11.75 14.9201C11.75 14.9261 11.75 14.9322 11.75 14.9382C11.75 14.9443 11.75 14.9503 11.75 14.9564C11.75 14.9625 11.75 14.9686 11.75 14.9747C11.75 14.9808 11.75 14.987 11.75 14.9931C11.75 14.9992 11.75 15.0054 11.75 15.0116C11.75 15.0177 11.75 15.0239 11.75 15.0301C11.75 15.0363 11.75 15.0425 11.75 15.0488C11.75 15.055 11.75 15.0612 11.75 15.0675C11.75 15.0738 11.75 15.08 11.75 15.0863C11.75 15.0926 11.75 15.0989 11.75 15.1053C11.75 15.1116 11.75 15.1179 11.75 15.1243C11.75 15.1306 11.75 15.137 11.75 15.1434C11.75 15.1498 11.75 15.1562 11.75 15.1626C11.75 15.169 11.75 15.1754 11.75 15.1819C11.75 15.1883 11.75 15.1948 11.75 15.2013C11.75 15.2077 11.75 15.2142 11.75 15.2208C11.75 15.2273 11.75 15.2338 11.75 15.2403C11.75 15.2469 11.75 15.2534 11.75 15.26C11.75 15.2666 11.75 15.2732 11.75 15.2798C11.75 15.2864 11.75 15.293 11.75 15.2996C11.75 15.3062 11.75 15.3129 11.75 15.3196C11.75 15.3262 11.75 15.3329 11.75 15.3396C11.75 15.3463 11.75 15.353 11.75 15.3597C11.75 15.3665 11.75 15.3732 11.75 15.38C11.75 15.3867 11.75 15.3935 11.75 15.4003C11.75 15.4071 11.75 15.4139 11.75 15.4207C11.75 15.4276 11.75 15.4344 11.75 15.4413C11.75 15.4481 11.75 15.455 11.75 15.4619C11.75 15.4688 11.75 15.4757 11.75 15.4826C11.75 15.4895 11.75 15.4964 11.75 15.5034C11.75 15.5103 11.75 15.5173 11.75 15.5243C11.75 15.5313 11.75 15.5383 11.75 15.5453C11.75 15.5523 11.75 15.5593 11.75 15.5664C11.75 15.5734 11.75 15.5805 11.75 15.5876C11.75 15.5947 11.75 15.6018 11.75 15.6089C11.75 15.616 11.75 15.6231 11.75 15.6303C11.75 15.6374 11.75 15.6446 11.75 15.6518C11.75 15.6589 11.75 15.6661 11.75 15.6734C11.75 15.6806 11.75 15.6878 11.75 15.695C11.75 15.7023 11.75 15.7095 11.75 15.7168C11.75 15.7241 11.75 15.7314 11.75 15.7387C11.75 15.746 11.75 15.7533 11.75 15.7607C11.75 15.768 11.75 15.7754 11.75 15.7828C11.75 15.7901 11.75 15.7975 11.75 15.8049C11.75 15.8124 11.75 15.8198 11.75 15.8272C11.75 15.8347 11.75 15.8421 11.75 15.8496C11.75 15.8571 11.75 15.8646 11.75 15.8721C11.75 15.8796 11.75 15.8871 11.75 15.8947C11.75 15.9022 11.75 15.9098 11.75 15.9174C11.75 15.9249 11.75 15.9325 11.75 15.9401C11.75 15.9477 11.75 15.9554 11.75 15.963C11.75 15.9707 11.75 15.9783 11.75 15.986C11.75 15.9937 11.75 16.0014 11.75 16.0091C11.75 16.0168 11.75 16.0245 11.75 16.0323C11.75 16.04 11.75 16.0478 11.75 16.0556C11.75 16.0633 11.75 16.0711 11.75 16.079C11.75 16.0868 11.75 16.0946 11.75 16.1025C11.75 16.1103 11.75 16.1182 11.75 16.126C11.75 16.1339 11.75 16.1418 11.75 16.1497C11.75 16.1577 11.75 16.1656 11.75 16.1736C11.75 16.1815 11.75 16.1895 11.75 16.1975C11.75 16.2054 11.75 16.2134 11.75 16.2215C11.75 16.2295 11.75 16.2375 11.75 16.2456C11.75 16.2536 11.75 16.2617 11.75 16.2698C11.75 16.2779 11.75 16.286 11.75 16.2941C11.75 16.3022 11.75 16.3104 11.75 16.3185C11.75 16.3267 11.75 16.3349 11.75 16.3431C11.75 16.3513 11.75 16.3595 11.75 16.3677C11.75 16.3759 11.75 16.3842 11.75 16.3924C11.75 16.4007 11.75 16.409 11.75 16.4173C11.75 16.4256 11.75 16.4339 11.75 16.4422C11.75 16.4506 11.75 16.4589 11.75 16.4673C11.75 16.4757 11.75 16.4841 11.75 16.4925C11.75 16.5009 11.75 16.5093 11.75 16.5177C11.75 16.5262 11.75 16.5346 11.75 16.5431C11.75 16.5516 11.75 16.5601 11.75 16.5686C11.75 16.5771 11.75 16.5856 11.75 16.5942C11.75 16.6027 11.75 16.6113 11.75 16.6199C11.75 16.6285 11.75 16.6371 11.75 16.6457C11.75 16.6543 11.75 16.6629 11.75 16.6716C11.75 16.6802 11.75 16.6889 11.75 16.6976C11.75 16.7063 11.75 16.715 11.75 16.7237C11.75 16.7325 11.75 16.7412 11.75 16.75C11.75 16.7587 11.75 16.7675 11.75 16.7763C11.75 16.7851 11.75 16.7939 11.75 16.8028C11.75 16.8116 11.75 16.8204 11.75 16.8293C11.75 16.8382 11.75 16.8471 11.75 16.856C11.75 16.8649 11.75 16.8738 11.75 16.8828C11.75 16.8917 11.75 16.9007 11.75 16.9097C11.75 16.9186 11.75 16.9276 11.75 16.9367C11.75 16.9457 11.75 16.9547 11.75 16.9638C11.75 16.9728 11.75 16.9819 11.75 16.991C11.75 17.0001 11.75 17.0092 11.75 17.0183C11.75 17.0274 11.75 17.0366 11.75 17.0457C11.75 17.0549 11.75 17.0641 11.75 17.0733C11.75 17.0825 11.75 17.0917 11.75 17.101C11.75 17.1102 11.75 17.1195 11.75 17.1287C11.75 17.138 11.75 17.1473 11.75 17.1566C11.75 17.1659 11.75 17.1753 11.75 17.1846C11.75 17.194 11.75 17.2033 11.75 17.2127C11.75 17.2221 11.75 17.2315 11.75 17.2409C11.75 17.2504 11.75 17.2598 11.75 17.2693C11.75 17.2787 11.75 17.2882 11.75 17.2977C11.75 17.3072 11.75 17.3167 11.75 17.3263C11.75 17.3358 11.75 17.3454 11.75 17.3549C11.75 17.3645 11.75 17.3741 11.75 17.3837C11.75 17.3933 11.75 17.403 11.75 17.4126C11.75 17.4223 11.75 17.4319 11.75 17.4416C11.75 17.4513 11.75 17.461 11.75 17.4708C11.75 17.4805 11.75 17.4902 11.75 17.5H13.25C13.25 17.4902 13.25 17.4805 13.25 17.4708C13.25 17.461 13.25 17.4513 13.25 17.4416C13.25 17.4319 13.25 17.4223 13.25 17.4126C13.25 17.403 13.25 17.3933 13.25 17.3837C13.25 17.3741 13.25 17.3645 13.25 17.3549C13.25 17.3454 13.25 17.3358 13.25 17.3263C13.25 17.3167 13.25 17.3072 13.25 17.2977C13.25 17.2882 13.25 17.2787 13.25 17.2693C13.25 17.2598 13.25 17.2504 13.25 17.2409C13.25 17.2315 13.25 17.2221 13.25 17.2127C13.25 17.2033 13.25 17.194 13.25 17.1846C13.25 17.1753 13.25 17.1659 13.25 17.1566C13.25 17.1473 13.25 17.138 13.25 17.1287C13.25 17.1195 13.25 17.1102 13.25 17.101C13.25 17.0917 13.25 17.0825 13.25 17.0733C13.25 17.0641 13.25 17.0549 13.25 17.0457C13.25 17.0366 13.25 17.0274 13.25 17.0183C13.25 17.0092 13.25 17.0001 13.25 16.991C13.25 16.9819 13.25 16.9728 13.25 16.9638C13.25 16.9547 13.25 16.9457 13.25 16.9367C13.25 16.9276 13.25 16.9186 13.25 16.9097C13.25 16.9007 13.25 16.8917 13.25 16.8828C13.25 16.8738 13.25 16.8649 13.25 16.856C13.25 16.8471 13.25 16.8382 13.25 16.8293C13.25 16.8204 13.25 16.8116 13.25 16.8028C13.25 16.7939 13.25 16.7851 13.25 16.7763C13.25 16.7675 13.25 16.7587 13.25 16.75C13.25 16.7412 13.25 16.7325 13.25 16.7237C13.25 16.715 13.25 16.7063 13.25 16.6976C13.25 16.6889 13.25 16.6802 13.25 16.6716C13.25 16.6629 13.25 16.6543 13.25 16.6457C13.25 16.6371 13.25 16.6285 13.25 16.6199C13.25 16.6113 13.25 16.6027 13.25 16.5942C13.25 16.5856 13.25 16.5771 13.25 16.5686C13.25 16.5601 13.25 16.5516 13.25 16.5431C13.25 16.5346 13.25 16.5262 13.25 16.5177C13.25 16.5093 13.25 16.5009 13.25 16.4925C13.25 16.4841 13.25 16.4757 13.25 16.4673C13.25 16.4589 13.25 16.4506 13.25 16.4422C13.25 16.4339 13.25 16.4256 13.25 16.4173C13.25 16.409 13.25 16.4007 13.25 16.3924C13.25 16.3842 13.25 16.3759 13.25 16.3677C13.25 16.3595 13.25 16.3513 13.25 16.3431C13.25 16.3349 13.25 16.3267 13.25 16.3185C13.25 16.3104 13.25 16.3022 13.25 16.2941C13.25 16.286 13.25 16.2779 13.25 16.2698C13.25 16.2617 13.25 16.2536 13.25 16.2456C13.25 16.2375 13.25 16.2295 13.25 16.2215C13.25 16.2134 13.25 16.2054 13.25 16.1975C13.25 16.1895 13.25 16.1815 13.25 16.1736C13.25 16.1656 13.25 16.1577 13.25 16.1497C13.25 16.1418 13.25 16.1339 13.25 16.126C13.25 16.1182 13.25 16.1103 13.25 16.1025C13.25 16.0946 13.25 16.0868 13.25 16.079C13.25 16.0711 13.25 16.0633 13.25 16.0556C13.25 16.0478 13.25 16.04 13.25 16.0323C13.25 16.0245 13.25 16.0168 13.25 16.0091C13.25 16.0014 13.25 15.9937 13.25 15.986C13.25 15.9783 13.25 15.9707 13.25 15.963C13.25 15.9554 13.25 15.9477 13.25 15.9401C13.25 15.9325 13.25 15.9249 13.25 15.9174C13.25 15.9098 13.25 15.9022 13.25 15.8947C13.25 15.8871 13.25 15.8796 13.25 15.8721C13.25 15.8646 13.25 15.8571 13.25 15.8496C13.25 15.8421 13.25 15.8347 13.25 15.8272C13.25 15.8198 13.25 15.8124 13.25 15.8049C13.25 15.7975 13.25 15.7901 13.25 15.7828C13.25 15.7754 13.25 15.768 13.25 15.7607C13.25 15.7533 13.25 15.746 13.25 15.7387C13.25 15.7314 13.25 15.7241 13.25 15.7168C13.25 15.7095 13.25 15.7023 13.25 15.695C13.25 15.6878 13.25 15.6806 13.25 15.6734C13.25 15.6661 13.25 15.6589 13.25 15.6518C13.25 15.6446 13.25 15.6374 13.25 15.6303C13.25 15.6231 13.25 15.616 13.25 15.6089C13.25 15.6018 13.25 15.5947 13.25 15.5876C13.25 15.5805 13.25 15.5734 13.25 15.5664C13.25 15.5593 13.25 15.5523 13.25 15.5453C13.25 15.5383 13.25 15.5313 13.25 15.5243C13.25 15.5173 13.25 15.5103 13.25 15.5034C13.25 15.4964 13.25 15.4895 13.25 15.4826C13.25 15.4757 13.25 15.4688 13.25 15.4619C13.25 15.455 13.25 15.4481 13.25 15.4413C13.25 15.4344 13.25 15.4276 13.25 15.4207C13.25 15.4139 13.25 15.4071 13.25 15.4003C13.25 15.3935 13.25 15.3867 13.25 15.38C13.25 15.3732 13.25 15.3665 13.25 15.3597C13.25 15.353 13.25 15.3463 13.25 15.3396C13.25 15.3329 13.25 15.3262 13.25 15.3196C13.25 15.3129 13.25 15.3062 13.25 15.2996C13.25 15.293 13.25 15.2864 13.25 15.2798C13.25 15.2732 13.25 15.2666 13.25 15.26C13.25 15.2534 13.25 15.2469 13.25 15.2403C13.25 15.2338 13.25 15.2273 13.25 15.2208C13.25 15.2142 13.25 15.2077 13.25 15.2013C13.25 15.1948 13.25 15.1883 13.25 15.1819C13.25 15.1754 13.25 15.169 13.25 15.1626C13.25 15.1562 13.25 15.1498 13.25 15.1434C13.25 15.137 13.25 15.1306 13.25 15.1243C13.25 15.1179 13.25 15.1116 13.25 15.1053C13.25 15.0989 13.25 15.0926 13.25 15.0863C13.25 15.08 13.25 15.0738 13.25 15.0675C13.25 15.0612 13.25 15.055 13.25 15.0488C13.25 15.0425 13.25 15.0363 13.25 15.0301C13.25 15.0239 13.25 15.0177 13.25 15.0116C13.25 15.0054 13.25 14.9992 13.25 14.9931C13.25 14.987 13.25 14.9808 13.25 14.9747C13.25 14.9686 13.25 14.9625 13.25 14.9564C13.25 14.9503 13.25 14.9443 13.25 14.9382C13.25 14.9322 13.25 14.9261 13.25 14.9201C13.25 14.9141 13.25 14.9081 13.25 14.9021C13.25 14.8961 13.25 14.8901 13.25 14.8842C13.25 14.8782 13.25 14.8723 13.25 14.8663C13.25 14.8604 13.25 14.8545 13.25 14.8486C13.25 14.8427 13.25 14.8368 13.25 14.8309C13.25 14.8251 13.25 14.8192 13.25 14.8134C13.25 14.8075 13.25 14.8017 13.25 14.7959C13.25 14.7901 13.25 14.7843 13.25 14.7785C13.25 14.7727 13.25 14.7669 13.25 14.7612C13.25 14.7554 13.25 14.7497 13.25 14.744C13.25 14.7383 13.25 14.7325 13.25 14.7268C13.25 14.7212 13.25 14.7155 13.25 14.7098C13.25 14.7041 13.25 14.6985 13.25 14.6929C13.25 14.6872 13.25 14.6816 13.25 14.676C13.25 14.6704 13.25 14.6648 13.25 14.6592C13.25 14.6536 13.25 14.6481 13.25 14.6425C13.25 14.637 13.25 14.6314 13.25 14.6259C13.25 14.6204 13.25 14.6149 13.25 14.6094C13.25 14.6039 13.25 14.5984 13.25 14.5929C13.25 14.5875 13.25 14.582 13.25 14.5766C13.25 14.5712 13.25 14.5657 13.25 14.5603C13.25 14.5549 13.25 14.5495 13.25 14.5441C13.25 14.5388 13.25 14.5334 13.25 14.528C13.25 14.5227 13.25 14.5174 13.25 14.512C13.25 14.5067 13.25 14.5014 13.25 14.4961C13.25 14.4908 13.25 14.4855 13.25 14.4803C13.25 14.475 13.25 14.4697 13.25 14.4645C13.25 14.4593 13.25 14.454 13.25 14.4488C13.25 14.4436 13.25 14.4384 13.25 14.4332C13.25 14.4281 13.25 14.4229 13.25 14.4177C13.25 14.4126 13.25 14.4074 13.25 14.4023C13.25 14.3972 13.25 14.3921 13.25 14.387C13.25 14.3819 13.25 14.3768 13.25 14.3717C13.25 14.3666 13.25 14.3616 13.25 14.3565C13.25 14.3515 13.25 14.3465 13.25 14.3414C13.25 14.3364 13.25 14.3314 13.25 14.3264C13.25 14.3214 13.25 14.3165 13.25 14.3115C13.25 14.3065 13.25 14.3016 13.25 14.2967C13.25 14.2917 13.25 14.2868 13.25 14.2819C13.25 14.277 13.25 14.2721 13.25 14.2672C13.25 14.2623 13.25 14.2575 13.25 14.2526C13.25 14.2477 13.25 14.2429 13.25 14.2381C13.25 14.2332 13.25 14.2284 13.25 14.2236C13.25 14.2188 13.25 14.214 13.25 14.2093C13.25 14.2045 13.25 14.1997 13.25 14.195C13.25 14.1902 13.25 14.1855 13.25 14.1808C13.25 14.1761 13.25 14.1713 13.25 14.1667C13.25 14.162 13.25 14.1573 13.25 14.1526C13.25 14.1479 13.25 14.1433 13.25 14.1386C13.25 14.134 13.25 14.1294 13.25 14.1248C13.25 14.1201 13.25 14.1155 13.25 14.1109C13.25 14.1064 13.25 14.1018 13.25 14.0972C13.25 14.0927 13.25 14.0881 13.25 14.0836C13.25 14.079 13.25 14.0745 13.25 14.07C13.25 14.0655 13.25 14.061 13.25 14.0565C13.25 14.052 13.25 14.0475 13.25 14.0431C13.25 14.0386 13.25 14.0342 13.25 14.0297C13.25 14.0253 13.25 14.0209 13.25 14.0165C13.25 14.0121 13.25 14.0077 13.25 14.0033C13.25 13.9989 13.25 13.9945 13.25 13.9902C13.25 13.9858 13.25 13.9815 13.25 13.9771C13.25 13.9728 13.25 13.9685 13.25 13.9642C13.25 13.9599 13.25 13.9556 13.25 13.9513C13.25 13.947 13.25 13.9428 13.25 13.9385C13.25 13.9342 13.25 13.93 13.25 13.9258C13.25 13.9215 13.25 13.9173 13.25 13.9131C13.25 13.9089 13.25 13.9047 13.25 13.9005C13.25 13.8964 13.25 13.8922 13.25 13.888C13.25 13.8839 13.25 13.8797 13.25 13.8756C13.25 13.8715 13.25 13.8674 13.25 13.8632C13.25 13.8591 13.25 13.855 13.25 13.851C13.25 13.8469 13.25 13.8428 13.25 13.8388C13.25 13.8347 13.25 13.8307 13.25 13.8266C13.25 13.8226 13.25 13.8186 13.25 13.8146C13.25 13.8106 13.25 13.8066 13.25 13.8026C13.25 13.7986 13.25 13.7946 13.25 13.7907C13.25 13.7867 13.25 13.7828 13.25 13.7788C13.25 13.7749 13.25 13.771 13.25 13.7671C13.25 13.7631 13.25 13.7592 13.25 13.7554C13.25 13.7515 13.25 13.7476 13.25 13.7437C13.25 13.7399 13.25 13.736 13.25 13.7322C13.25 13.7283 13.25 13.7245 13.25 13.7207C13.25 13.7169 13.25 13.7131 13.25 13.7093C13.25 13.7055 13.25 13.7017 13.25 13.698C13.25 13.6942 13.25 13.6904 13.25 13.6867C13.25 13.6829 13.25 13.6792 13.25 13.6755C13.25 13.6718 13.25 13.6681 13.25 13.6644C13.25 13.6607 13.25 13.657 13.25 13.6533C13.25 13.6496 13.25 13.646 13.25 13.6423C13.25 13.6387 13.25 13.635 13.25 13.6314C13.25 13.6278 13.25 13.6242 13.25 13.6206C13.25 13.617 13.25 13.6134 13.25 13.6098C13.25 13.6062 13.25 13.6027 13.25 13.5991C13.25 13.5955 13.25 13.592 13.25 13.5885C13.25 13.5849 13.25 13.5814 13.25 13.5779C13.25 13.5744 13.25 13.5709 13.25 13.5674C13.25 13.5639 13.25 13.5604 13.25 13.557C13.25 13.5535 13.25 13.55 13.25 13.5466C13.25 13.5432 13.25 13.5397 13.25 13.5363C13.25 13.5329 13.25 13.5295 13.25 13.5261C13.25 13.5227 13.25 13.5193 13.25 13.5159C13.25 13.5125 13.25 13.5092 13.25 13.5058C13.25 13.5025 13.25 13.4991 13.25 13.4958C13.25 13.4925 13.25 13.4892 13.25 13.4858C13.25 13.4825 13.25 13.4792 13.25 13.476C13.25 13.4727 13.25 13.4694 13.25 13.4661C13.25 13.4629 13.25 13.4596 13.25 13.4564C13.25 13.4531 13.25 13.4499 13.25 13.4467C13.25 13.4435 13.25 13.4402 13.25 13.4371C13.25 13.4339 13.25 13.4307 13.25 13.4275C13.25 13.4243 13.25 13.4211 13.25 13.418C13.25 13.4148 13.25 13.4117 13.25 13.4086C13.25 13.4054 13.25 13.4023 13.25 13.3992C13.25 13.3961 13.25 13.393 13.25 13.3899C13.25 13.3868 13.25 13.3837 13.25 13.3807C13.25 13.3776 13.25 13.3745 13.25 13.3715C13.25 13.3684 13.25 13.3654 13.25 13.3624C13.25 13.3593 13.25 13.3563 13.25 13.3533C13.25 13.3503 13.25 13.3473 13.25 13.3443C13.25 13.3414 13.25 13.3384 13.25 13.3354C13.25 13.3325 13.25 13.3295 13.25 13.3266C13.25 13.3236 13.25 13.3207 13.25 13.3178C13.25 13.3149 13.25 13.3119 13.25 13.309C13.25 13.3061 13.25 13.3033 13.25 13.3004C13.25 13.2975 13.25 13.2946 13.25 13.2918C13.25 13.2889 13.25 13.2861 13.25 13.2832C13.25 13.2804 13.25 13.2776 13.25 13.2747C13.25 13.2719 13.25 13.2691 13.25 13.2663C13.25 13.2635 13.25 13.2607 13.25 13.258C13.25 13.2552 13.25 13.2524 13.25 13.2497C13.25 13.2469 13.25 13.2442 13.25 13.2414C13.25 13.2387 13.25 13.236 13.25 13.2332C13.25 13.2305 13.25 13.2278 13.25 13.2251C13.25 13.2224 13.25 13.2198 13.25 13.2171C13.25 13.2144 13.25 13.2117 13.25 13.2091C13.25 13.2064 13.25 13.2038 13.25 13.2011C13.25 13.1985 13.25 13.1959 13.25 13.1933C13.25 13.1906 13.25 13.188 13.25 13.1854C13.25 13.1828 13.25 13.1803 13.25 13.1777C13.25 13.1751 13.25 13.1725 13.25 13.17C13.25 13.1674 13.25 13.1649 13.25 13.1623C13.25 13.1598 13.25 13.1573 13.25 13.1548C13.25 13.1522 13.25 13.1497 13.25 13.1472C13.25 13.1447 13.25 13.1422 13.25 13.1398C13.25 13.1373 13.25 13.1348 13.25 13.1324C13.25 13.1299 13.25 13.1274 13.25 13.125C13.25 13.1226 13.25 13.1201 13.25 13.1177C13.25 13.1153 13.25 13.1129 13.25 13.1105C13.25 13.1081 13.25 13.1057 13.25 13.1033C13.25 13.1009 13.25 13.0985 13.25 13.0962C13.25 13.0938 13.25 13.0914 13.25 13.0891C13.25 13.0867 13.25 13.0844 13.25 13.0821C13.25 13.0797 13.25 13.0774 13.25 13.0751C13.25 13.0728 13.25 13.0705 13.25 13.0682C13.25 13.0659 13.25 13.0636 13.25 13.0614C13.25 13.0591 13.25 13.0568 13.25 13.0546C13.25 13.0523 13.25 13.0501 13.25 13.0478C13.25 13.0456 13.25 13.0434 13.25 13.0412C13.25 13.0389 13.25 13.0367 13.25 13.0345C13.25 13.0323 13.25 13.0301 13.25 13.028C13.25 13.0258 13.25 13.0236 13.25 13.0214C13.25 13.0193 13.25 13.0171 13.25 13.015C13.25 13.0128 13.25 13.0107 13.25 13.0086C13.25 13.0064 13.25 13.0043 13.25 13.0022C13.25 13.0001 13.25 12.998 13.25 12.9959C13.25 12.9938 13.25 12.9917 13.25 12.9897C13.25 12.9876 13.25 12.9855 13.25 12.9835C13.25 12.9814 13.25 12.9794 13.25 12.9773C13.25 12.9753 13.25 12.9732 13.25 12.9712C13.25 12.9692 13.25 12.9672 13.25 12.9652C13.25 12.9632 13.25 12.9612 13.25 12.9592C13.25 12.9572 13.25 12.9552 13.25 12.9533C13.25 12.9513 13.25 12.9493 13.25 12.9474C13.25 12.9454 13.25 12.9435 13.25 12.9415C13.25 12.9396 13.25 12.9377 13.25 12.9358C13.25 12.9338 13.25 12.9319 13.25 12.93C13.25 12.9281 13.25 12.9262 13.25 12.9243C13.25 12.9224 13.25 12.9206 13.25 12.9187C13.25 12.9168 13.25 12.915 13.25 12.9131C13.25 12.9113 13.25 12.9094 13.25 12.9076C13.25 12.9057 13.25 12.9039 13.25 12.9021C13.25 12.9003 13.25 12.8985 13.25 12.8967C13.25 12.8949 13.25 12.8931 13.25 12.8913C13.25 12.8895 13.25 12.8877 13.25 12.8859C13.25 12.8842 13.25 12.8824 13.25 12.8807C13.25 12.8789 13.25 12.8772 13.25 12.8754C13.25 12.8737 13.25 12.872 13.25 12.8702C13.25 12.8685 13.25 12.8668 13.25 12.8651C13.25 12.8634 13.25 12.8617 13.25 12.86C13.25 12.8583 13.25 12.8566 13.25 12.855C13.25 12.8533 13.25 12.8516 13.25 12.85C13.25 12.8483 13.25 12.8466 13.25 12.845C13.25 12.8434 13.25 12.8417 13.25 12.8401C13.25 12.8385 13.25 12.8368 13.25 12.8352C13.25 12.8336 13.25 12.832 13.25 12.8304C13.25 12.8288 13.25 12.8272 13.25 12.8257C13.25 12.8241 13.25 12.8225 13.25 12.8209C13.25 12.8194 13.25 12.8178 13.25 12.8163C13.25 12.8147 13.25 12.8132 13.25 12.8116C13.25 12.8101 13.25 12.8086 13.25 12.8071C13.25 12.8055 13.25 12.804 13.25 12.8025C13.25 12.801 13.25 12.7995 13.25 12.798C13.25 12.7965 13.25 12.7951 13.25 12.7936C13.25 12.7921 13.25 12.7906 13.25 12.7892C13.25 12.7877 13.25 12.7863 13.25 12.7848C13.25 12.7834 13.25 12.7819 13.25 12.7805C13.25 12.7791 13.25 12.7776 13.25 12.7762C13.25 12.7748 13.25 12.7734 13.25 12.772C13.25 12.7706 13.25 12.7692 13.25 12.7678C13.25 12.7664 13.25 12.765 13.25 12.7637C13.25 12.7623 13.25 12.7609 13.25 12.7596C13.25 12.7582 13.25 12.7569 13.25 12.7555C13.25 12.7542 13.25 12.7528 13.25 12.7515C13.25 12.7502 13.25 12.7488 13.25 12.7475C13.25 12.7462 13.25 12.7449 13.25 12.7436C13.25 12.7423 13.25 12.741 13.25 12.7397C13.25 12.7384 13.25 12.7371 13.25 12.7359C13.25 12.7346 13.25 12.7333 13.25 12.7321C13.25 12.7308 13.25 12.7296 13.25 12.7283C13.25 12.7271 13.25 12.7258 13.25 12.7246C13.25 12.7233 13.25 12.7221 13.25 12.7209C13.25 12.7197 13.25 12.7185 13.25 12.7173C13.25 12.7161 13.25 12.7149 13.25 12.7137C13.25 12.7125 13.25 12.7113 13.25 12.7101C13.25 12.7089 13.25 12.7077 13.25 12.7066C13.25 12.7054 13.25 12.7042 13.25 12.7031C13.25 12.7019 13.25 12.7008 13.25 12.6997C13.25 12.6985 13.25 12.6974 13.25 12.6962C13.25 12.6951 13.25 12.694 13.25 12.6929C13.25 12.6918 13.25 12.6907 13.25 12.6896C13.25 12.6885 13.25 12.6874 13.25 12.6863C13.25 12.6852 13.25 12.6841 13.25 12.683C13.25 12.6819 13.25 12.6809 13.25 12.6798C13.25 12.6787 13.25 12.6777 13.25 12.6766C13.25 12.6756 13.25 12.6745 13.25 12.6735C13.25 12.6725 13.25 12.6714 13.25 12.6704C13.25 12.6694 13.25 12.6684 13.25 12.6673C13.25 12.6663 13.25 12.6653 13.25 12.6643C13.25 12.6633 13.25 12.6623 13.25 12.6613C13.25 12.6603 13.25 12.6594 13.25 12.6584C13.25 12.6574 13.25 12.6564 13.25 12.6555C13.25 12.6545 13.25 12.6535 13.25 12.6526C13.25 12.6516 13.25 12.6507 13.25 12.6497C13.25 12.6488 13.25 12.6479 13.25 12.6469C13.25 12.646 13.25 12.6451 13.25 12.6442C13.25 12.6432 13.25 12.6423 13.25 12.6414C13.25 12.6405 13.25 12.6396 13.25 12.6387C13.25 12.6378 13.25 12.6369 13.25 12.6361C13.25 12.6352 13.25 12.6343 13.25 12.6334C13.25 12.6326 13.25 12.6317 13.25 12.6308C13.25 12.63 13.25 12.6291 13.25 12.6283C13.25 12.6274 13.25 12.6266 13.25 12.6257C13.25 12.6249 13.25 12.6241 13.25 12.6232C13.25 12.6224 13.25 12.6216 13.25 12.6208C13.25 12.62 13.25 12.6191 13.25 12.6183C13.25 12.6175 13.25 12.6167 13.25 12.6159C13.25 12.6151 13.25 12.6144 13.25 12.6136C13.25 12.6128 13.25 12.612 13.25 12.6112C13.25 12.6105 13.25 12.6097 13.25 12.6089C13.25 12.6082 13.25 12.6074 13.25 12.6067C13.25 12.6059 13.25 12.6052 13.25 12.6044C13.25 12.6037 13.25 12.603 13.25 12.6022C13.25 12.6015 13.25 12.6008 13.25 12.6C13.25 12.5993 13.25 12.5986 13.25 12.5979C13.25 12.5972 13.25 12.5965 13.25 12.5958C13.25 12.5951 13.25 12.5944 13.25 12.5937C13.25 12.593 13.25 12.5923 13.25 12.5917C13.25 12.591 13.25 12.5903 13.25 12.5896C13.25 12.589 13.25 12.5883 13.25 12.5876C13.25 12.587 13.25 12.5863 13.25 12.5857C13.25 12.585 13.25 12.5844 13.25 12.5837C13.25 12.5831 13.25 12.5825 13.25 12.5818C13.25 12.5812 13.25 12.5806 13.25 12.58C13.25 12.5794 13.25 12.5787 13.25 12.5781C13.25 12.5775 13.25 12.5769 13.25 12.5763C13.25 12.5757 13.25 12.5751 13.25 12.5745C13.25 12.5739 13.25 12.5733 13.25 12.5728C13.25 12.5722 13.25 12.5716 13.25 12.571C13.25 12.5705 13.25 12.5699 13.25 12.5693C13.25 12.5688 13.25 12.5682 13.25 12.5676C13.25 12.5671 13.25 12.5665 13.25 12.566C13.25 12.5655 13.25 12.5649 13.25 12.5644C13.25 12.5638 13.25 12.5633 13.25 12.5628C13.25 12.5622 13.25 12.5617 13.25 12.5612C13.25 12.5607 13.25 12.5602 13.25 12.5597C13.25 12.5592 13.25 12.5586 13.25 12.5581C13.25 12.5576 13.25 12.5571 13.25 12.5567C13.25 12.5562 13.25 12.5557 13.25 12.5552C13.25 12.5547 13.25 12.5542 13.25 12.5538C13.25 12.5533 13.25 12.5528 13.25 12.5523C13.25 12.5519 13.25 12.5514 13.25 12.5509C13.25 12.5505 13.25 12.55 13.25 12.5496C13.25 12.5491 13.25 12.5487 13.25 12.5482C13.25 12.5478 13.25 12.5474 13.25 12.5469C13.25 12.5465 13.25 12.5461 13.25 12.5456C13.25 12.5452 13.25 12.5448 13.25 12.5444C13.25 12.544 13.25 12.5435 13.25 12.5431C13.25 12.5427 13.25 12.5423 13.25 12.5419C13.25 12.5415 13.25 12.5411 13.25 12.5407C13.25 12.5403 13.25 12.5399 13.25 12.5395C13.25 12.5391 13.25 12.5388 13.25 12.5384C13.25 12.538 13.25 12.5376 13.25 12.5373C13.25 12.5369 13.25 12.5365 13.25 12.5361C13.25 12.5358 13.25 12.5354 13.25 12.5351C13.25 12.5347 13.25 12.5344 13.25 12.534C13.25 12.5336 13.25 12.5333 13.25 12.533C13.25 12.5326 13.25 12.5323 13.25 12.5319C13.25 12.5316 13.25 12.5313 13.25 12.5309C13.25 12.5306 13.25 12.5312 13.25 12.5309C13.25 12.5305 13.25 12.5293 13.25 12.529C13.25 12.5287 13.25 12.5293 13.25 12.529C13.25 12.5287 13.25 12.5275 13.25 12.5272C13.25 12.5269 13.25 12.5275 13.25 12.5272C13.25 12.5269 13.25 12.5257 13.25 12.5254C13.25 12.5251 13.25 12.5257 13.25 12.5254C13.25 12.5251 13.25 12.524 13.25 12.5237C13.25 12.5234 13.25 12.5239 13.25 12.5237C13.25 12.5234 13.25 12.5223 13.25 12.5221C13.25 12.5218 13.25 12.5224 13.25 12.5221C13.25 12.5218 13.25 12.5208 13.25 12.5205C13.25 12.5203 13.25 12.5207 13.25 12.5205C13.25 12.5203 13.25 12.5193 13.25 12.5191C13.25 12.5188 13.25 12.5193 13.25 12.5191C13.25 12.5188 13.25 12.5179 13.25 12.5177C13.25 12.5175 13.25 12.5179 13.25 12.5177C13.25 12.5175 13.25 12.5166 13.25 12.5164C13.25 12.5161 13.25 12.5166 13.25 12.5164C13.25 12.5162 13.25 12.5153 13.25 12.5151C13.25 12.5149 13.25 12.5153 13.25 12.5151C13.25 12.5149 13.25 12.5141 13.25 12.5139C13.25 12.5137 13.25 12.5141 13.25 12.5139C13.25 12.5137 13.25 12.513 13.25 12.5128C13.25 12.5126 13.25 12.513 13.25 12.5128C13.25 12.5127 13.25 12.5119 13.25 12.5117C13.25 12.5115 13.25 12.5104 13.25 12.5102C13.25 12.5101 13.25 12.509 13.25 12.5089C13.25 12.5088 13.25 12.5078 13.25 12.5077C13.25 12.5076 13.25 12.5067 13.25 12.5065C13.25 12.5064 13.25 12.5057 13.25 12.5055C13.25 12.5054 13.25 12.5045 13.25 12.5044C13.25 12.5043 13.25 12.5045 13.25 12.5044C13.25 12.5043 13.25 12.5035 13.25 12.5034C13.25 12.5033 13.25 12.5023 13.25 12.5022C13.25 12.5022 13.25 12.5013 13.25 12.5012C13.25 12.5011 13.25 12.5 13.25 12.5H12.5ZM13.25 12.5V7.5H11.75V12.5H13.25Z" fill="black"/>
</svg>
