<svg width="25" height="25" viewBox="0 0 25 25" fill="none" xmlns="http://www.w3.org/2000/svg">
<path d="M20.8327 20.0636H11.3848C10.9161 20.0636 10.5306 19.6782 10.5306 19.2095C10.5306 18.7407 10.9161 18.3553 11.3848 18.3553H20.8327C21.3015 18.3553 21.6869 18.7407 21.6869 19.2095C21.6869 19.6886 21.3015 20.0636 20.8327 20.0636Z" fill="#292D32"/>
<path d="M20.8327 13.5084H11.3848C10.9161 13.5084 10.5306 13.123 10.5306 12.6543C10.5306 12.1855 10.9161 11.8001 11.3848 11.8001H20.8327C21.3015 11.8001 21.6869 12.1855 21.6869 12.6543C21.6869 13.123 21.3015 13.5084 20.8327 13.5084Z" fill="#292D32"/>
<path d="M20.8327 6.94922H11.3848C10.9161 6.94922 10.5306 6.5638 10.5306 6.09505C10.5306 5.6263 10.9161 5.24089 11.3848 5.24089H20.8327C21.3015 5.24089 21.6869 5.6263 21.6869 6.09505C21.6869 6.5638 21.3015 6.94922 20.8327 6.94922Z" fill="#292D32"/>
<path d="M5.11425 8.36653C4.88508 8.36653 4.66633 8.27278 4.51008 8.11653L3.56216 7.16862C3.22883 6.83529 3.22883 6.29361 3.56216 5.96028C3.8955 5.62695 4.43716 5.62695 4.7705 5.96028L5.11425 6.30404L7.34341 4.07486C7.67675 3.74154 8.21841 3.74154 8.55175 4.07486C8.88508 4.40821 8.88508 4.94987 8.55175 5.28321L5.71841 8.11653C5.55175 8.27278 5.34341 8.36653 5.11425 8.36653Z" fill="#292D32"/>
<path d="M5.11425 14.9257C4.8955 14.9257 4.67675 14.8424 4.51008 14.6757L3.56216 13.7279C3.22883 13.3946 3.22883 12.8529 3.56216 12.5196C3.8955 12.1862 4.43716 12.1862 4.7705 12.5196L5.11425 12.8633L7.34341 10.6341C7.67675 10.3008 8.21841 10.3008 8.55175 10.6341C8.88508 10.9675 8.88508 11.5091 8.55175 11.8424L5.71841 14.6757C5.55175 14.8424 5.333 14.9257 5.11425 14.9257Z" fill="#292D32"/>
<path d="M5.11425 21.1758C4.8955 21.1758 4.67675 21.0925 4.51008 20.9258L3.56216 19.9779C3.22883 19.6446 3.22883 19.1029 3.56216 18.7696C3.8955 18.4362 4.43716 18.4362 4.7705 18.7696L5.11425 19.1133L7.34341 16.8841C7.67675 16.5508 8.21841 16.5508 8.55175 16.8841C8.88508 17.2175 8.88508 17.7592 8.55175 18.0925L5.71841 20.9258C5.55175 21.0925 5.333 21.1758 5.11425 21.1758Z" fill="#292D32"/>
</svg>
