<svg width="25" height="25" viewBox="0 0 25 25" fill="none" xmlns="http://www.w3.org/2000/svg">
<path d="M11.25 21.25C11.25 21.5815 11.3817 21.8995 11.6161 22.1339C11.8505 22.3683 12.1685 22.5 12.5 22.5C12.8315 22.5 13.1495 22.3683 13.3839 22.1339C13.6183 21.8995 13.75 21.5815 13.75 21.25H11.25ZM13.75 3.75C13.75 3.41848 13.6183 3.10054 13.3839 2.86612C13.1495 2.6317 12.8315 2.5 12.5 2.5C12.1685 2.5 11.8505 2.6317 11.6161 2.86612C11.3817 3.10054 11.25 3.41848 11.25 3.75H13.75ZM3.75 21.25C3.75 21.5815 3.8817 21.8995 4.11612 22.1339C4.35054 22.3683 4.66848 22.5 5 22.5C5.33152 22.5 5.64946 22.3683 5.88388 22.1339C6.1183 21.8995 6.25 21.5815 6.25 21.25H3.75ZM6.25 12.5C6.25 12.1685 6.1183 11.8505 5.88388 11.6161C5.64946 11.3817 5.33152 11.25 5 11.25C4.66848 11.25 4.35054 11.3817 4.11612 11.6161C3.8817 11.8505 3.75 12.1685 3.75 12.5H6.25ZM18.75 21.25C18.75 21.5815 18.8817 21.8995 19.1161 22.1339C19.3505 22.3683 19.6685 22.5 20 22.5C20.3315 22.5 20.6495 22.3683 20.8839 22.1339C21.1183 21.8995 21.25 21.5815 21.25 21.25H18.75ZM21.25 8.75C21.25 8.41848 21.1183 8.10054 20.8839 7.86612C20.6495 7.6317 20.3315 7.5 20 7.5C19.6685 7.5 19.3505 7.6317 19.1161 7.86612C18.8817 8.10054 18.75 8.41848 18.75 8.75H21.25ZM13.75 21.25V3.75H11.25V21.25H13.75ZM6.25 21.25V12.5H3.75V21.25H6.25ZM21.25 21.25V8.75H18.75V21.25H21.25Z" fill="black"/>
</svg>
